<svg width="150" height="150" viewBox="0 0 150 150" fill="none" xmlns="http://www.w3.org/2000/svg">
<path d="M56.25 31.25C59.5652 31.25 62.7446 32.567 65.0888 34.9112C67.433 37.2554 68.75 40.4348 68.75 43.75V81.25C68.75 100.812 58.4375 113.706 39.0188 118.562C38.2204 118.769 37.3892 118.815 36.5729 118.698C35.7567 118.581 34.9716 118.305 34.2629 117.883C33.5541 117.462 32.9358 116.904 32.4434 116.243C31.951 115.582 31.5944 114.829 31.394 114.03C31.1937 113.23 31.1536 112.398 31.276 111.583C31.3984 110.768 31.6809 109.984 32.1073 109.279C32.5337 108.573 33.0955 107.959 33.7604 107.471C34.4253 106.983 35.18 106.632 35.9812 106.438C49.9 102.956 56.25 95.0187 56.25 81.25V75H37.5C34.3464 75.001 31.309 73.81 28.9966 71.6656C26.6842 69.5213 25.2678 66.5822 25.0313 63.4375L25 62.5V43.75C25 40.4348 26.317 37.2554 28.6612 34.9112C31.0054 32.567 34.1848 31.25 37.5 31.25H56.25ZM112.5 31.25C115.815 31.25 118.995 32.567 121.339 34.9112C123.683 37.2554 125 40.4348 125 43.75V81.25C125 100.812 114.688 113.706 95.2688 118.562C94.4704 118.769 93.6392 118.815 92.8229 118.698C92.0067 118.581 91.2216 118.305 90.5129 117.883C89.8041 117.462 89.1858 116.904 88.6934 116.243C88.201 115.582 87.8444 114.829 87.644 114.03C87.4437 113.23 87.4036 112.398 87.526 111.583C87.6484 110.768 87.9309 109.984 88.3573 109.279C88.7837 108.573 89.3455 107.959 90.0104 107.471C90.6753 106.983 91.43 106.632 92.2312 106.438C106.15 102.956 112.5 95.0187 112.5 81.25V75H93.75C90.5964 75.001 87.559 73.81 85.2466 71.6656C82.9342 69.5213 81.5178 66.5822 81.2812 63.4375L81.25 62.5V43.75C81.25 40.4348 82.567 37.2554 84.9112 34.9112C87.2554 32.567 90.4348 31.25 93.75 31.25H112.5Z" fill="black" fill-opacity="0.5"/>
</svg>
